<?xml version="1.0" standalone="no"?>
<!DOCTYPE svg PUBLIC "-//W3C//DTD SVG 1.1//EN" "http://www.w3.org/Graphics/SVG/1.1/DTD/svg11.dtd" >
<svg xmlns="http://www.w3.org/2000/svg">
<metadata>Generated by IcoMoon</metadata>
<defs>
<font id="icomoon" horiz-adv-x="1024">
<font-face units-per-em="1024" ascent="960" descent="-64" />
<missing-glyph horiz-adv-x="1024" />
<glyph unicode="&#x20;" horiz-adv-x="512" d="" />
<glyph unicode="&#xe900;" glyph-name="42" d="M928.030 0.493c-24.728-12.459-48.071-24.216-83.115-24.216-1.214 0-2.332 0.114-3.546 0.152l140.535 414.208-147.551 65.991v275.816h-94.815v132.741h-208.593v94.815h-37.926v-94.815h-208.593v-132.741h-113.778v-282.889l-131.736-58.918 140.591-414.341c-0.152 0-0.304-0.019-0.436-0.019-35.081 0-58.443 11.776-83.171 24.235-24.159 12.174-49.152 24.766-83.304 24.766v-37.926c25.145 0 44.184-9.595 66.219-20.708 26.321-13.255 56.15-28.293 100.238-28.293 44.070 0 73.88 15.038 100.201 28.293 22.035 11.112 41.074 20.708 66.238 20.708s44.203-9.595 66.257-20.708c26.302-13.255 56.128-28.293 100.217-28.293 44.070 0 73.882 15.038 100.183 28.293 22.035 11.112 41.093 20.708 66.257 20.708s44.203-9.595 66.238-20.708c26.321-13.255 56.149-28.293 100.238-28.293 44.051 0 73.878 15.019 100.179 28.274 22.054 11.131 41.093 20.727 66.276 20.727v37.926c-34.133 0-59.125-12.591-83.302-24.785zM916.785 316.663l-385.82 172.563v61.554l403.966-180.66-18.146-53.457zM322.372 827.259h379.259v-94.815h-379.259v94.815zM208.594 694.519h587.852v-220.919l-286.018 127.924-301.833-134.997v227.992zM493.039 552.183v-61.554l-388.969-173.966-18.147 53.438 407.116 182.082zM678.438 25.278c-34.19 0-59.163-12.591-83.34-24.785-24.709-12.459-48.052-24.216-83.115-24.216-35.081 0-58.425 11.776-83.153 24.235-24.159 12.174-49.152 24.766-83.342 24.766s-59.164-12.591-83.323-24.785c-14.412-7.244-28.408-14.203-44.47-18.792l-101.432 298.875 376.776 168.505v-266.562h37.926v265.14l373.57-167.102-101.129-298.022c-14.886 4.589-28.084 11.131-41.643 17.958-24.178 12.193-49.135 24.785-83.325 24.785zM720.593 656.593h-436.148v-37.926h436.148v37.926z" />
<glyph unicode="&#xe901;" glyph-name="41" horiz-adv-x="948" d="M777.463 808.296h-606.814v-379.259h606.814v379.259zM208.574 770.37h246.519v-303.407h-246.519v303.407zM739.537 466.963h-246.519v303.407h246.519v-303.407zM568.87 884.148h-170.667v-37.926h170.667v37.926zM303.388 841.481c13.092 0 23.704 10.612 23.704 23.704s-10.612 23.704-23.704 23.704c-13.090 0-23.704-10.612-23.704-23.704s10.614-23.704 23.704-23.704zM644.722 841.481c13.092 0 23.704 10.612 23.704 23.704s-10.612 23.704-23.704 23.704c-13.090 0-23.704-10.612-23.704-23.704s10.614-23.704 23.704-23.704zM236.574 365.519c-44.449 0-80.593-36.143-80.593-80.593s36.144-80.593 80.593-80.593c44.449 0 80.593 36.143 80.593 80.593s-36.162 80.593-80.593 80.593zM236.574 242.259c-23.514 0-42.667 19.153-42.667 42.667s19.153 42.667 42.667 42.667c23.514 0 42.667-19.153 42.667-42.667s-19.153-42.667-42.667-42.667zM716.296 365.519c-44.449 0-80.593-36.143-80.593-80.593s36.143-80.593 80.593-80.593c44.449 0 80.593 36.143 80.593 80.593s-36.143 80.593-80.593 80.593zM716.296 242.259c-23.514 0-42.667 19.153-42.667 42.667s19.153 42.667 42.667 42.667c23.514 0 42.667-19.153 42.667-42.667s-19.134-42.667-42.667-42.667zM568.87 353.185h-189.63v-37.926h189.63v37.926zM568.87 277.333h-189.63v-37.926h189.63v37.926zM743.433-64h199.509l-168.279 170.667h5.672c51.56 0 91.951 41.643 91.951 94.815v596.044c0 150.528-172.603 162.474-398.222 162.474-225.621 0-398.223-11.965-398.223-162.474v-596.044c0-51.39 44.279-94.815 96.692-94.815h0.929l-168.278-170.667h199.511l69.82 94.815h399.113l69.805-94.815zM852.281-26.074h-89.676l-97.735 132.741h56.548l130.863-132.741zM113.767 201.481v596.044c0 105.301 121.326 124.549 360.297 124.549s360.296-19.266 360.296-124.549v-596.044c0-31.915-23.723-56.889-54.025-56.889h-607.821c-31.839 0-58.747 26.055-58.747 56.889zM185.504-26.074h-89.676l130.846 132.741h56.548l-97.717-132.741zM302.431 68.741l27.931 37.926h287.405l27.932-37.926h-343.268z" />
<glyph unicode="&#xe902;" glyph-name="40" horiz-adv-x="1005" d="M885.945 356.257c-15.051 15.051-39.588 15.051-54.639 0l-3.748-3.748-11.534 43.105 42.602 42.641c15.070 15.051 15.070 39.588 0 54.639l-27.32 27.32c-13.525 13.505-34.603 14.8-49.693 4.038l-17.485 65.401 143.186 143.167c71.506 71.546 102.323 166.237 65.942 202.618-9.95 9.95-25.020 15.205-43.549 15.205-47.278 0-109.703-31.879-159.029-81.205l-144.423-144.423-65.072 17.601c11.689 15.128 10.762 36.942-3.111 50.814l-27.339 27.359c-14.568 14.568-40.071 14.568-54.658 0l-43.394-43.433-43.027 11.65 4.463 4.463c15.070 15.051 15.070 39.588 0 54.639l-27.32 27.319c-14.568 14.568-40.071 14.568-54.639 0l-51.528-51.528-172.070 46.525-81.901-81.901 431.761-251.344-88.702-88.702c-37.25-37.25-85.282-93.319-124.426-151.591l-151.513 39.608-69.439-69.497 157.503-94.421c-2.686-9.061-4.908-17.93-6.106-26.315-0.831-8.888 1.662-17.022 7.013-22.895 5.255-5.777 12.809-8.965 21.252-8.965l3.922 0.251c9.081 1.275 18.703 3.806 28.556 6.917l102.168-168.69 69.419 69.419-44.843 168.149c55.953 39.859 108.834 87.137 143.109 121.412l89.842 89.822 250.126-432.939 81.997 81.939-46.138 172.476 51.123 51.123c7.284 7.284 11.283 16.983 11.283 27.32s-4.019 20.036-11.283 27.32l-27.339 27.339zM803.987 492.894l27.32-27.32-26.798-26.837-11.534 43.124 11.013 11.032zM503.414 793.468l27.339-27.359-12.018-12.018-43.027 11.65 27.706 27.726zM339.497 848.107l27.32-27.32-20.132-20.171-43.027 11.65 35.84 35.84zM69.47 796.675l30.623 30.623 494.689-133.777-128.077-128.077-397.235 231.231zM66.668 274.704l18.78 18.818 118.030-30.875c-10.761-18.026-20.152-35.898-27.88-53.248l-108.93 65.304zM344.984 33.891l-18.818-18.818-73.284 121.006c18.432 8.694 37.405 19.379 56.455 31.512l35.647-133.7zM459.015 339.197c-77.669-77.689-189.981-165.057-262.105-183.489 18.741 74.25 104.158 189.459 180.147 265.448l420.941 420.942c48.012 48.012 101.936 69.883 131.71 69.883 9.1 0 14.375-2.010 16.249-3.884 12.153-12.172-0.541-82.499-65.961-147.959l-420.98-420.941zM834.591 31.669l-230.149 398.317 128.135 128.116 17.311-64.686-0.522-0.522 0.908-0.908 114.939-429.732-30.623-30.585zM850.627 266.3l-11.534 43.105 19.533 19.533 27.32-27.32-35.318-35.318z" />
<glyph unicode="&#xe903;" glyph-name="39" horiz-adv-x="1043" d="M0-64h739.556v1024h-739.556v-1024zM606.815 392.647l-323.906-323.906h-150.168v758.519h474.074v-434.612zM639.943 372.148h4.798v4.779l56.889 56.889v-133.329l-3.129 3.129-329.709-329.69h-127.071l398.222 398.222zM606.815 158.303v-89.562h-89.581l89.581 89.562zM422.419-26.074l56.889 56.889h165.433v165.414l56.889 56.889v-279.192h-279.211zM37.926 922.074h663.704v-440.889l-3.129 3.129-53.76-53.741v434.612h-549.926v-834.37h150.168l-56.889-56.889h-150.168v948.148zM929.185 315.254v29.412c39.633 9.463 71.225 47.256 71.225 89.695 0 102.571-72.609 189.762-75.681 193.441l-14.507 17.161-14.507-17.161c-3.072-3.66-75.681-90.871-75.681-193.441 0-42.439 31.592-80.251 71.225-89.695v-29.412h-113.778v-379.259h265.481v379.259h-113.778zM857.96 434.36c0 62.18 32.654 120.036 52.281 149.22 19.646-29.108 52.243-86.812 52.243-149.22 0-21.523-14.393-41.529-33.299-49.929v25.638h-37.926v-25.638c-18.906 8.401-33.299 28.407-33.299 49.929zM1005.037-26.080h-189.63v303.407h189.63v-303.407z" />
<glyph unicode="&#xe904;" glyph-name="38" horiz-adv-x="1179" d="M1167.147 201.525c-6.704 73.361-34.584 160.633-78.5 245.741-79.872 154.837-192.57 262.955-274.046 262.955-13.814 0-26.663-2.995-38.139-8.926l-0.019-0.019-43.897-22.625v119.615c0 0.251 0.077 0.483 0.077 0.754h-0.077c0 91.754-157.426 160.961-366.186 160.961-208.741 0-366.148-69.207-366.148-160.961v-219.851h-0.213c0-0.56 0.174-1.121 0.193-1.7v-218.151h-0.193c0-0.56 0.174-1.121 0.193-1.7v-218.209c0-91.754 157.406-160.942 366.148-160.942 141.544 0 266.742 33.425 327.042 86.171 63.643-79.408 132.734-128.638 187.662-128.657 13.814 0 26.643 2.995 38.139 8.926l195.487 100.796c41.076 21.176 59.72 76.53 52.475 155.822zM580.936 600.537c-35.879-18.49-54.62-63.044-53.963-126.802-49.171-10.878-104.178-16.867-160.71-16.867-191.604 0-325.4 63.488-327.429 121.025v148.866c59.276-52.939 182.175-88.644 327.815-88.644 145.157 0 267.728 35.454 327.236 88.103v-67.449l-112.949-58.233zM529.698 434.804c5.912-51.528 21.697-109.22 45.925-168.033-59.141-19.186-132.463-29.735-209.36-29.735-191.604 0-325.4 63.469-327.429 120.987v148.229c59.585-52.61 182.233-88.045 327.429-88.045 57.17 0 112.968 5.912 163.434 16.597zM366.341 921.359c195.932 0 327.545-63.237 327.545-122.32v-0.58c-0.908-57.692-134.994-121.721-327.236-121.721-192.879 0-327.294 64.454-327.294 122.301h-0.522c0 59.083 131.594 122.32 327.506 122.32zM366.341 17.128c-195.912 0-327.506 63.237-327.506 122.3v146.973c59.585-52.61 182.233-88.025 327.429-88.025 82.364 0 161.251 11.67 224.874 32.845 5.023-10.781 10.298-21.543 15.843-32.285 19.34-37.502 40.651-72.202 62.947-103.385-51.142-47.181-170.68-78.423-303.587-78.423zM901.468-20.741c-6.047-3.111-12.713-4.618-20.422-4.618-55.702 0-158.643 84.837-239.732 242.031-41.694 80.799-68.106 163.029-74.366 231.54-5.642 61.653 5.912 104.661 31.705 117.953l130.338 67.178c-6.183-24.441-8.134-53.77-5.023-87.89 6.704-73.361 34.584-160.613 78.5-245.721 43.897-85.147 98.884-158.469 154.779-206.481 25.851-22.18 50.852-37.83 74.25-46.988l-130.029-67.004zM982.402 122.6c-52.205 44.824-103.926 114.031-145.601 194.869-41.694 80.78-68.106 163.009-74.366 231.521-5.642 61.653 5.931 104.661 31.744 117.953 6.047 3.111 12.732 4.618 20.441 4.618 55.663 0 158.604-84.837 239.713-242.031 41.694-80.78 68.086-163.029 74.366-231.54 5.642-61.653-5.931-104.641-31.705-117.934-25.813-13.351-67.584 2.203-114.591 42.544z" />
<glyph unicode="&#xe905;" glyph-name="37" horiz-adv-x="1007" d="M957.541 632.008c-2.77 8.863-7.118 17.005-12.741 24.072 45.039 21.689 63.606 65.116 51.066 123.031l-2.417 11.146-11.247 1.863c-43.495 7.185-75.675-2.82-95.954-20.362-0.755 12.322-4.415 24.307-10.844 34.984-17.173 28.454-52.795 43.159-84.858 35.337-21.135 10.089-46.416 9.871-67.399-0.302-2.938 30.972-24.156 57.545-53.802 66.862-14.336 21.756-38.442 35.001-64.579 35.001-26.188 0-50.294-13.245-64.596-35.001-8.931-2.803-17.022-7.319-24.173-12.909-4.13 0.118-8.242 0.269-12.389 0.269-251.669 0-456.402-204.733-456.402-456.385 0-19.406 1.36-38.996 3.827-58.334-1.964-3.928-3.676-8.024-4.936-12.338-0.067-0.235-0.118-0.436-0.185-0.671-12.641-9.585-21.857-22.847-26.322-38.073-9.031-31.073 3.408-64.378 29.763-82.138 2.753-8.813 7.067-16.904 12.641-23.938-36.478-17.072-66.459-51.922-50.965-123.149l2.417-11.163 11.264-1.847c9.703-1.612 18.835-2.35 27.397-2.35 29.981 0 52.761 9.317 68.524 23.032 0.705-12.422 4.398-24.542 10.878-35.32 13.983-23.132 39.499-37.502 66.559-37.502 6.194 0 12.322 0.722 18.298 2.182 10.525-5.036 22.058-7.655 33.725-7.655 11.7 0 23.183 2.837 33.691 7.974 2.938-30.989 24.156-57.579 53.785-66.879 14.319-21.773 38.425-35.017 64.579-35.017 26.188 0 50.294 13.245 64.596 35.017 8.511 2.669 16.283 6.849 23.199 12.070 4.549-0.134 9.115-0.302 13.698-0.302 251.669 0 456.402 204.733 456.402 456.402 0 19.725-1.494 39.634-4.046 59.375 1.93 3.861 3.592 7.907 4.835 12.17 0.067 0.235 0.118 0.453 0.185 0.688 12.624 9.585 21.857 22.847 26.322 38.073 8.998 31.039-3.441 64.361-29.797 82.088zM965.095 760.444c5.741-42.84-12.322-69.934-53.533-80.846-1.242 0.42-2.417 0.957-3.693 1.326-5.943 1.729-12.053 2.636-18.163 2.803 6.967 14.235 9.518 30.351 7.050 46.214 6.967 18.533 29.814 33.658 68.339 30.502zM734.51 809.932c6.765 4.079 14.487 6.245 22.327 6.245 8.125 0 16.132-2.249 23.183-6.513l6.782-4.096 7.487 2.636c19.355 6.832 41.749-1.225 52.375-18.801 5.624-9.35 7.504-20.53 5.271-31.509l-1.511-7.42 6.077-7.94c0.52-0.655 1.058-1.276 1.41-1.83 12.557-20.833 5.842-47.994-14.974-60.534-5.372-3.24-11.499-5.238-18.18-5.926l-7.873-0.806-4.381-6.597c-3.71-5.59-8.326-10.055-13.715-13.295-6.883-4.163-14.722-6.345-22.713-6.345-15.629 0-29.746 7.974-37.72 21.168-0.403 0.688-0.671 1.41-0.99 2.115l-4.264 9.216-7.269 2.132c-7.604 2.233-18.18 7.403-25.415 19.355-10.76 17.844-7.504 41.010 7.756 55.095l5.842 5.389-0.453 7.94c-0.99 16.485 7.050 31.962 20.95 40.322zM649.787 651.531c-13.983-13.832-36.663-20.53-66.996-20.211-2.619 38.862 8.041 65.032 32.063 79.906 5.17-1.108 10.391-1.847 15.679-1.847 10.878 0 21.235 2.3 30.636 6.345 0.688-6.58 2.115-13.111 4.532-19.439 0.504-8.578-0.168-29.176-15.914-44.754zM554.488 877.717l7.772 1.612 3.693 7.017c7.688 14.638 22.562 23.737 38.811 23.737 16.216 0 31.106-9.099 38.828-23.754l3.693-7 7.756-1.612c20.346-4.197 35.118-22.36 35.118-43.159 0-10.878-4.18-21.437-11.768-29.696l-5.12-5.59 1.091-9.938c0.101-0.755 0.252-1.511 0.252-2.3 0-24.307-19.775-44.082-44.099-44.082-6.278 0-12.523 1.444-18.583 4.314l-7.168 3.391-7.168-3.391c-6.060-2.854-12.322-4.314-18.617-4.314-24.307 0-44.082 19.775-44.082 44.082 0 0.789 0.151 1.544 0.252 2.3l1.091 9.938-5.12 5.59c-7.571 8.259-11.751 18.801-11.751 29.696 0 20.816 14.772 38.962 35.118 43.159zM491.1 862.106c-3.324-8.645-5.288-17.895-5.288-27.547 0-7.403 1.242-14.655 3.307-21.655-199.344-7.655-359.172-172.116-359.172-373.29 0-6.178 0.252-12.389 0.571-18.6-4.415 0.806-8.847 1.377-13.329 1.377-12.691 0-24.828-3.391-35.504-9.283-0.554 8.847-0.906 17.71-0.906 26.506 0 228.94 182.943 415.828 410.322 422.492zM51.804 320.796c2.82 9.602 9.2 17.844 17.979 23.183l6.412 3.878 1.779 9.77c0.101 0.705 0.185 1.427 0.353 2.031 5.002 17.156 20.967 29.142 38.828 29.142 3.811 0 7.638-0.554 11.398-1.645 5.456-1.595 10.61-4.482 15.31-8.595l5.943-5.238 7.823 1.259c5.758 0.957 11.834 0.655 17.441-0.99 10.391-3.022 18.952-9.887 24.156-19.355s6.396-20.413 3.391-30.72c-0.235-0.789-0.604-1.477-1.612-3.743l-3.122-7.151 3.475-7c4.566-9.216 5.556-19.59 2.753-29.192-5.271-18.18-22.964-30.72-42-29.008l-7.924 0.638-5.523-5.741c-10.358-10.76-26.053-15.142-40.255-10.962-14.302 4.163-25.080 15.998-28.101 30.871l-1.578 7.789-7.017 3.71c-16.854 8.947-25.231 28.739-19.909 47.070zM41.615 119.655c-5.002 31.677-0.101 66.342 53.651 80.862 1.259-0.436 2.468-0.99 3.76-1.36 5.943-1.729 12.036-2.568 18.18-2.787-6.967-14.235-9.535-30.384-7.050-46.248-6.983-18.55-29.847-33.742-68.541-30.468zM272.401 70.151c-13.765-8.276-31.643-8.091-45.526 0.302l-6.782 4.096-7.47-2.636c-4.684-1.662-9.569-2.484-14.554-2.484-15.629 0-29.763 7.974-37.804 21.286-5.624 9.35-7.504 20.547-5.271 31.526l1.494 7.403-6.093 8.024c-0.504 0.621-1.041 1.225-1.377 1.763-12.557 20.833-5.842 47.994 14.957 60.517 5.388 3.24 11.515 5.254 18.18 5.926l7.89 0.823 4.381 6.614c3.71 5.59 8.31 10.072 13.715 13.295 6.883 4.163 14.722 6.345 22.713 6.345 15.629 0 29.763-7.974 37.72-21.135 0.403-0.671 0.688-1.41 0.99-2.115l4.348-9.283 7.235-2.115c10.71-3.139 19.725-10.005 25.382-19.338 10.76-17.844 7.487-40.994-7.756-55.095l-5.842-5.372 0.453-7.94c0.923-16.569-7.101-32.029-20.984-40.406zM357.091 228.569c13.983 13.832 36.293 20.799 66.996 20.228 2.619-38.878-8.041-65.049-32.046-79.922-5.17 1.108-10.408 1.847-15.679 1.847-10.878 0-21.235-2.3-30.653-6.345-0.688 6.58-2.115 13.094-4.516 19.422-0.504 8.595 0.168 29.192 15.897 44.771zM452.407 2.382l-7.772-1.612-3.693-7.034c-7.688-14.638-22.562-23.737-38.811-23.737-16.216 0-31.089 9.098-38.811 23.753l-3.693 7.017-7.772 1.612c-20.346 4.197-35.101 22.343-35.101 43.159 0 10.878 4.18 21.437 11.751 29.713l5.12 5.59-1.091 9.921c-0.101 0.772-0.252 1.528-0.252 2.317 0 24.307 19.775 44.082 44.099 44.082 6.278 0 12.54-1.444 18.617-4.314l7.134-3.341 7.134 3.341c6.11 2.854 12.389 4.314 18.667 4.314 24.307 0 44.082-19.775 44.082-44.082 0-0.789-0.151-1.544-0.252-2.317l-1.091-9.921 5.12-5.59c7.588-8.259 11.751-18.818 11.751-29.713-0.034-20.816-14.789-38.962-35.135-43.159zM515.408 17.087c3.542 8.897 5.674 18.466 5.674 28.454 0 7.151-1.192 14.151-3.139 20.933 68.944 2.602 135.336 23.753 192.713 62.028l-18.633 27.933c-55.481-37.015-120.144-56.639-187.123-56.874-3.022 35.639-29.914 64.344-64.781 69.917 15.88 24.257 21.319 56.824 15.83 97.616l-1.813 13.48-13.547 1.041c-47.809 3.643-83.867-6.161-107.117-29.192-10.475-10.374-16.703-21.907-20.514-32.852-4.684 3.24-9.619 6.178-14.991 8.343-0.185 0.353-0.386 0.688-0.588 1.041-13.077 21.672-36.276 35.487-61.373 37.2 0.101 0.336 0.252 0.604 0.353 0.94 4.432 15.192 3.777 31.341-1.763 46.214 0.084 0.269 0.168 0.52 0.235 0.806 5.54 18.986 3.341 38.979-6.178 56.303-9.518 17.341-25.214 29.931-44.2 35.454-6.278 1.83-12.808 2.535-19.372 2.602-0.94 10.374-1.578 20.799-1.578 31.14 0 187.006 151.753 339.162 338.558 340.002 3.408-35.219 30.132-63.488 64.697-69.011-15.897-24.257-21.319-56.824-15.847-97.616l1.813-13.463 13.547-1.041c6.497-0.504 12.775-0.739 18.835-0.739 38.526 0 68.188 10.039 88.282 29.931 10.475 10.374 16.703 21.907 20.514 32.852 4.684-3.24 9.619-6.161 14.991-8.326 0.201-0.353 0.386-0.705 0.604-1.041 13.077-21.672 36.276-35.504 61.373-37.2-0.101-0.336-0.252-0.621-0.353-0.94-4.432-15.192-3.777-31.341 1.763-46.214-0.084-0.269-0.168-0.52-0.235-0.789-5.54-18.986-3.341-38.996 6.194-56.32 9.518-17.341 25.214-29.931 44.183-35.437 6.329-1.83 12.976-2.552 19.607-2.602 0.99-10.609 1.662-21.319 1.662-32.013 0-66.442-19.154-130.787-55.397-186.083l28.084-18.398c39.835 60.769 60.886 131.475 60.886 204.481 0 6.463-0.269 12.943-0.604 19.406 4.314-0.772 8.662-1.309 13.043-1.309 12.792 0 24.996 3.441 35.722 9.417 0.604-9.199 1.007-18.398 1.007-27.53 0-229.208-183.313-416.248-411.027-422.543zM955.073 559.304c-2.82-9.619-9.199-17.844-17.979-23.183l-6.396-3.878-1.796-9.787c-0.118-0.705-0.185-1.393-0.353-1.998-6.060-20.833-28.857-33.725-50.226-27.514-5.473 1.578-10.609 4.465-15.276 8.578l-5.943 5.238-7.823-1.259c-5.775-0.923-11.852-0.655-17.458 0.99-10.374 3.022-18.952 9.887-24.156 19.355s-6.396 20.413-3.408 30.703c0.218 0.722 0.554 1.377 0.856 2.048l3.844 8.931-3.441 6.933c-4.566 9.216-5.556 19.574-2.753 29.176 5.271 18.18 22.797 30.519 42.018 29.025l7.907-0.638 5.506 5.708c10.358 10.744 26.070 15.075 40.272 10.962 14.319-4.18 25.080-15.998 28.101-30.871l1.578-7.789 7.017-3.71c16.871-8.914 25.231-28.706 19.909-47.020zM503.607 540.328c-9.266 0-16.787-7.521-16.787-16.787v-167.869c0-9.283 7.521-16.787 16.787-16.787s16.787 7.504 16.787 16.787v167.869c0 9.266-7.521 16.787-16.787 16.787zM625.244 540.328h-54.49c-9.266 0-16.787-7.521-16.787-16.787v-167.869c0-9.283 7.521-16.787 16.787-16.787s16.787 7.504 16.787 16.787v50.361h37.703c37.082 0 67.265 30.116 67.265 67.148s-30.166 67.148-67.265 67.148zM625.244 439.607h-37.703v67.148h37.703c18.566 0 33.691-15.058 33.691-33.574s-15.108-33.574-33.691-33.574zM424.047 539.057c-8.914 2.367-18.162-2.904-20.562-11.868l-27.95-104.112-27.969 104.112c-2.417 8.964-11.615 14.235-20.562 11.868-8.964-2.417-14.269-11.617-11.868-20.564l44.183-164.495c1.964-7.336 8.628-12.422 16.216-12.422 7.604 0 14.252 5.103 16.216 12.422l44.165 164.495c2.401 8.947-2.921 18.163-11.868 20.564zM604.786 803.295c10.431 0 18.885 8.455 18.885 18.885s-8.454 18.885-18.885 18.885c-10.43 0-18.885-8.455-18.885-18.885s8.456-18.885 18.885-18.885zM779.41 715.803c10.43 0 18.885 8.456 18.885 18.885s-8.456 18.885-18.885 18.885c-10.43 0-18.885-8.456-18.885-18.885s8.456-18.885 18.885-18.885zM875.639 551.394c10.43 0 18.885 8.456 18.885 18.885s-8.456 18.885-18.885 18.885c-10.43 0-18.885-8.456-18.885-18.885s8.456-18.885 18.885-18.885zM131.771 290.935c10.43 0 18.885 8.454 18.885 18.885 0 10.43-8.455 18.885-18.885 18.885s-18.885-8.456-18.885-18.885c0-10.431 8.455-18.885 18.885-18.885zM227.508 126.541c10.431 0 18.885 8.456 18.885 18.885s-8.454 18.885-18.885 18.885c-10.43 0-18.885-8.456-18.885-18.885s8.456-18.885 18.885-18.885zM402.132 39.033c10.43 0 18.885 8.456 18.885 18.885s-8.456 18.885-18.885 18.885c-10.43 0-18.885-8.456-18.885-18.885s8.456-18.885 18.885-18.885zM755.967 171.852c10.43 0 18.885 8.456 18.885 18.885s-8.456 18.885-18.885 18.885c-10.43 0-18.885-8.456-18.885-18.885s8.456-18.885 18.885-18.885z" />
<glyph unicode="&#xe906;" glyph-name="36" horiz-adv-x="1084" d="M542.138 153.389l310.21-187.229-82.318 352.876 274.071 237.426-360.912 30.619-141.051 332.8-141.051-332.8-360.91-30.619 274.070-237.426-82.321-352.876 310.212 187.229z" />
<glyph unicode="&#xe907;" glyph-name="35" horiz-adv-x="1725" d="M0 960.057h1724.632v-161.684h-1724.632v161.684zM0 528.899h1724.632v-161.682h-1724.632v161.682zM0 97.743h1724.632v-161.684h-1724.632v161.684z" />
<glyph unicode="&#xe908;" glyph-name="34" d="M369.819 960.013c98.071-0.009 192.122-38.976 261.465-108.328 69.336-69.353 108.288-163.41 108.282-261.482-0.011-91.591-33.582-175.784-88.769-240.631l15.36-15.36 44.942-0.006 284.416-284.467-85.339-85.328-284.422 284.467 0.006 44.942-15.36 15.366c-64.857-55.177-149.055-88.735-240.646-88.73-98.071 0.011-192.122 38.975-261.463 108.328-69.341 69.355-108.291 163.413-108.282 261.484s38.976 192.122 108.328 261.463c69.353 69.341 163.41 108.291 261.482 108.282zM369.81 846.235c-142.222 0.013-256.010-113.755-256.023-255.977s113.755-256.013 255.977-256.024c142.222-0.011 256.008 113.757 256.025 255.979 0.011 142.222-113.757 256.010-255.98 256.022z" />
<glyph unicode="&#xe909;" glyph-name="33" d="M893.417 919.917l-853.333-853.333 90.5-90.5 853.333 853.333zM130.583 919.917l-90.5-90.5 853.333-853.333 90.5 90.5z" />
<glyph unicode="&#xe90a;" glyph-name="32" d="M341.333 960v-136.533h449.877l-791.211-791.211 96.256-96.256 791.211 791.211v-449.877h136.533v682.667h-682.667z" />
<glyph unicode="&#xe90b;" glyph-name="31" horiz-adv-x="7168" d="M7168-64h-7168v1024h7168v-1024z" />
<glyph unicode="&#xe90c;" glyph-name="30" d="M1024 374.857h-438.857v-438.857h-146.286v438.857h-438.857v146.286h438.857v438.857h146.286v-438.857h438.857v-146.286z" />
<glyph unicode="&#xe90d;" glyph-name="29" d="M985.922 447.981c0-261.385-212.575-474.055-473.884-474.055-145.598 0-282.321 66.939-371.997 180.489l85.485-8.552 3.774 37.736-149.050 14.924-3.774-149.732 37.907-0.967 1.915 75.833c96.882-118.158 241.646-187.657 395.739-187.657 282.207 0 511.81 229.66 511.81 511.981h-37.926zM512.040 922.074c150.509 0 290.304-70.637 379.657-190.35l-85.049 11.435-5.063-37.585 148.461-19.949 8.778 149.504-37.85 2.219-4.454-75.889c-96.673 124.929-244.945 198.542-404.48 198.542-282.264 0-511.887-229.679-511.887-512.019h37.926c0 261.404 212.613 474.093 473.961 474.093zM228.049 378.139c3.375 2.238 8.287 4.57 13.976 7.377 29.867 14.696 85.447 42.041 85.447 109.53 0 56.472-50.271 81.844-85.959 81.844-35.518 0-88.329-25.107-88.329-94.322h37.926c0 54.822 45.246 56.396 50.404 56.396 15.682 0 48.033-10.733 48.033-43.918 0-40.543-30.398-58.842-64.265-75.492-7.168-3.546-13.369-6.58-18.318-9.88-49.342-32.958-55.068-70.808-55.561-75.017l-2.465-21.163h164.636v37.926h-114.214c5.822 8.021 14.81 17.427 28.691 26.719zM496.414 311.979v70.58h46.175v37.926h-46.175v34.418h-37.926v-34.418h-56.111l82.127 142.488-32.863 18.944-114.895-199.358h121.742v-70.58h37.926zM607.050 296.239l74.653 292.752-36.75 9.371-74.653-292.752 36.75-9.371zM750.973 312.058l133.596 264.552h-161.206v-37.926h99.556l-105.811-209.522 33.866-17.105z" />
<glyph unicode="&#xe90e;" glyph-name="28" horiz-adv-x="805" d="M610.999 960h-610.999v-1024h804.571v830.427l-193.573 193.573zM621.714 897.573l120.43-120.43h-120.43v120.43zM768-27.429h-731.429v950.857h548.571v-182.857h182.857v-768zM438.857 667.429h-292.571v-36.571h292.571v36.571zM658.286 539.429h-512v-36.571h512v36.571zM658.286 411.429h-512v-36.571h512v36.571zM658.286 283.429h-512v-36.571h512v36.571zM658.286 155.429h-512v-36.571h512v36.571z" />
<glyph unicode="&#xe90f;" glyph-name="27" d="M512 960c-23.021 0-43.654-15.522-57.3-39.633l-44-77.667c-18.938-33.438-69.159-54.236-106.2-43.967l-86 23.833c-26.696 7.387-52.258 3.745-68.533-12.533s-19.93-41.871-12.533-68.567l23.833-86.033c10.251-36.985-10.548-87.257-43.933-106.167l-77.7-43.933c-24.105-13.657-39.6-34.344-39.6-57.367s15.494-43.685 39.6-57.333l77.7-43.967c33.383-18.894 54.187-69.127 43.933-106.133l-23.833-86.033c-7.396-26.703-3.744-52.286 12.533-68.567s41.837-19.897 68.533-12.5l86 23.8c37.019 10.267 87.264-10.532 106.2-43.967l44-77.667c13.656-24.101 34.282-39.6 57.3-39.6s43.687 15.497 57.333 39.6l43.967 77.667c18.898 33.417 69.17 54.231 106.167 43.967l86-23.8c26.698-7.397 52.288-3.746 68.567 12.533s19.931 41.835 12.533 68.533l-23.833 86.033c-10.234 36.958 10.603 87.239 44 106.133l77.667 43.967c24.108 13.649 39.6 34.343 39.6 57.367s-15.492 43.684-39.6 57.333l-77.667 43.933c-33.406 18.913-54.236 69.187-44 106.167l23.833 86.033c7.397 26.698 3.746 52.287-12.533 68.567s-41.869 19.931-68.567 12.533l-86-23.833c-36.974-10.262-87.27 10.553-106.167 43.967l-43.967 77.667c-13.654 24.11-34.312 39.633-57.333 39.633zM512 925.867c7.763 0 17.907-5.125 27.633-22.3l43.967-77.667c27.798-49.155 90.599-75.166 145-60.067l86 23.833c19.006 5.266 29.802 1.731 35.3-3.767s9.033-16.294 3.767-35.3l-23.833-86.033v-0.034c-15.057-54.395 10.938-117.152 60.067-144.967l77.7-43.933c17.136-9.709 22.267-19.855 22.267-27.633 0-7.782-5.141-17.918-22.3-27.633l-77.667-43.967c-49.137-27.8-75.126-90.584-60.067-144.967l23.833-86.033c5.266-19.006 1.731-29.802-3.767-35.3s-16.294-9.066-35.3-3.8l-86 23.833c-54.413 15.097-117.204-10.915-145-60.067l-43.967-77.667c-9.718-17.164-19.868-22.267-27.633-22.267s-17.874 5.101-27.6 22.267l-44 77.7c-27.827 49.133-90.576 75.127-145 60.033l-86-23.833c-19.009-5.267-29.808-1.726-35.3 3.767s-9.034 16.315-3.767 35.333l23.833 86.033c15.073 54.402-10.883 117.167-60 144.967l-77.733 43.967c-17.138 9.711-22.267 19.826-22.267 27.6s5.127 17.948 22.267 27.667l77.733 43.933c49.115 27.819 75.076 90.61 60 145l-23.833 86.033c-5.267 19.008-1.727 29.773 3.767 35.267s16.291 9.060 35.3 3.8l86-23.833c54.436-15.092 117.175 10.936 145 60.067l44 77.667c9.719 17.173 19.837 22.3 27.6 22.3zM666.1 584.367l-342.2-269.533 21.133-26.8 342.2 269.533zM417.867 647.9c-48.209 0-87.633-39.46-87.633-87.667s39.425-87.633 87.633-87.633c48.207 0 87.667 39.424 87.667 87.633 0 48.208-39.459 87.667-87.667 87.667zM417.867 613.767c29.76 0 53.533-23.774 53.533-53.533 0-29.762-23.773-53.5-53.533-53.5-29.762 0-53.5 23.738-53.5 53.5 0 29.76 23.738 53.533 53.5 53.533zM610.4 412.633c-48.208 0-87.667-39.458-87.667-87.667 0-48.208 39.46-87.667 87.667-87.667s87.633 39.46 87.633 87.667c0 48.208-39.424 87.667-87.633 87.667zM610.4 378.5c29.762 0 53.5-23.771 53.5-53.533 0-29.76-23.738-53.533-53.5-53.533-29.76 0-53.533 23.774-53.533 53.533 0 29.762 23.774 53.533 53.533 53.533z" />
<glyph unicode="&#xe910;" glyph-name="26" horiz-adv-x="1159" d="M326.25 788.527c0-22.664 7.864-44.786 22.142-62.33l29.966 24.423c-8.81 10.82-13.467 23.918-13.467 37.906 0 34.797 23.243 60.029 55.277 60.029v38.642c-53.538 0-93.918-42.409-93.918-98.671zM888.755 476.981c-91.677 0-172.728-45.964-221.667-115.925h-36.787c-64.956 59.064-85.475 232.313-85.475 276.306 0 14.317 13.099 39.028 22.953 56.378 19.379 34.159 28.614 57.054 28.614 94.788 0 94.556-76.916 171.472-171.472 171.472s-171.472-76.916-171.472-171.472c0-37.753 9.235-60.648 28.633-94.807 9.854-17.331 22.934-42.042 22.934-56.359 0-43.974-20.519-217.243-85.475-276.306h-86.712c-75.718 0-132.83-55.026-132.83-128v-103.849h38.642v-30.604c0-31.145 24.789-66 57.962-66h579.623v7.129c49.558-63.024 126.319-103.714 212.528-103.714 149.137 0 270.471 121.334 270.471 270.491 0 149.137-121.334 270.471-270.471 270.471zM343.658 637.363c0 18.587-8.095 40.458-27.976 75.448-18.509 32.613-23.591 48.882-23.591 75.718 0 73.245 59.585 132.83 132.83 132.83s132.83-59.585 132.83-132.83c0-26.837-5.062-43.105-23.571-75.718-19.881-34.99-27.996-56.842-27.996-75.448 0-31.705 13.621-189.846 73.631-276.306h-309.789c60.010 86.46 73.631 244.601 73.631 276.306zM38.642 233.057c0 51.78 39.608 89.358 94.189 89.358h511.903c-16.79-35.183-26.469-74.404-26.469-115.905 0-13.157 1.256-26.006 3.091-38.661h-582.714v65.208zM96.604 71.245c-8.675 0-19.321 15.090-19.321 27.358v30.604h552.38c6.125-20.48 14.684-39.839 25.214-57.962h-558.273zM888.755-25.339c-127.845 0-231.849 104.004-231.849 231.849 0 127.826 104.004 231.83 231.849 231.83 127.826 0 231.83-104.004 231.83-231.83 0-127.845-104.004-231.849-231.83-231.849zM865.050 151.925l-79.486 69.669-25.465-29.056 107.829-94.536 159.068 172.67-28.402 26.197-133.545-144.942z" />
<glyph unicode="&#xe911;" glyph-name="25" horiz-adv-x="819" d="M409.6 448c-56.32 0-102.4 46.080-102.4 102.4s46.080 102.4 102.4 102.4c56.32 0 102.4-46.080 102.4-102.4s-46.080-102.4-102.4-102.4zM716.8 540.16c0 185.856-135.68 317.44-307.2 317.44s-307.2-131.584-307.2-317.44c0-119.808 99.84-278.528 307.2-467.968 207.36 189.44 307.2 348.16 307.2 467.968zM409.6 960c215.040 0 409.6-164.864 409.6-419.84 0-169.984-136.704-371.2-409.6-604.16-272.896 232.96-409.6 434.176-409.6 604.16 0 254.976 194.56 419.84 409.6 419.84z" />
<glyph unicode="&#xe912;" glyph-name="24" horiz-adv-x="1062" d="M948.148-26.074v94.815h-94.815v94.815h-115.409l-61.042 677.965-145.92 103.841-145.92-103.841-61.042-677.965h-115.409v-94.815h-94.815v-94.815h-113.778v-37.926h1061.926v37.926h-113.778zM699.847 163.556h-149.921v721.75l90.738-64.569 59.183-657.181zM421.262 820.737l90.738 64.569v-721.75h-149.921l59.183 657.181zM246.519 125.63h568.889v-56.889h-568.889v56.889zM151.704 30.815h758.519v-56.889h-758.519v56.889z" />
<glyph unicode="&#xe913;" glyph-name="23" horiz-adv-x="1434" d="M0 960v-1024h1433.6v1024h-1433.6zM230.4 166.4v563.2h972.8v-563.2h-972.8zM1218.202 780.8h-1002.803l-128 128h1258.803l-128-128zM179.2 744.602v-593.203l-128-128v849.203l128-128zM215.398 115.2h1002.803l128-128h-1258.803l128 128zM1254.4 151.398v593.203l128 128v-849.203l-128 128zM1075.2 627.2h-716.8v-51.2h716.8v51.2zM1075.2 473.6h-716.8v-51.2h716.8v51.2zM921.6 320h-435.2v-51.2h435.2v51.2z" />
<glyph unicode="&#xe914;" glyph-name="22" horiz-adv-x="805" d="M475.429 100.571v329.143h292.571v146.286h-292.571v91.429h146.286v146.286h-146.286v146.286h-146.286v-146.286h-146.286v-146.286h146.286v-91.429h-292.571v-146.286h292.571v-329.143h-329.143v-164.571h804.571v164.571h-329.143zM73.143 466.286v73.143h292.571v164.571h-146.286v73.143h146.286v146.286h73.143v-146.286h146.286v-73.143h-146.286v-164.571h292.571v-73.143h-292.571v-365.714h-73.143v365.714h-292.571zM768-27.429h-731.429v91.429h731.429v-91.429z" />
<glyph unicode="&#xe915;" glyph-name="21" horiz-adv-x="1274" d="M1241.086 125.281c-5.621 19.16-11.446 38.866-15.474 57.23 28.49 75.139 44.146 166.002 44.146 256.796s-15.656 181.658-44.146 256.796c4.028 18.341 9.853 38.071 15.474 57.231 5.234 17.772 10.652 36.181 14.839 53.999 7.259 30.879 4.483 54.682-8.238 70.77-7.122 9.011-20.755 19.729-45.195 19.729-10.126 0-21.322-1.866-33.246-5.553-10.9-3.368-23.097-6.121-37.205-9.329-16.976-3.846-37.729-8.534-63.238-15.929-109.659 46.99-322.037 72.909-430.694 72.909s-321.013-25.919-430.694-72.909c-25.509 7.373-46.262 12.083-63.237 15.929-14.108 3.209-26.306 5.962-37.206 9.329-11.924 3.686-23.12 5.553-33.246 5.553-24.439 0-38.069-10.741-45.192-19.729-12.743-16.088-15.519-39.891-8.238-70.77 4.21-17.818 9.602-36.204 14.836-53.999 5.621-19.16 11.446-38.867 15.474-57.231-28.49-75.139-44.146-166.002-44.146-256.796s15.656-181.658 44.146-256.796c-4.028-18.341-9.853-38.070-15.474-57.23-5.234-17.772-10.649-36.181-14.836-53.999-7.259-30.879-4.483-54.704 8.238-70.77 7.122-9.011 20.752-19.729 45.192-19.729 10.126 0 21.322 1.866 33.246 5.552 10.9 3.368 23.097 6.121 37.206 9.33 16.976 3.846 37.728 8.533 63.237 15.929 109.658-46.99 322.036-72.909 430.694-72.909s321.013 25.919 430.694 72.909c25.509-7.373 46.262-12.083 63.238-15.929 14.108-3.209 26.305-5.962 37.205-9.33 11.924-3.686 23.12-5.552 33.246-5.552 24.439 0 38.072 10.741 45.195 19.729 12.743 16.088 15.519 39.89 8.238 70.77-4.187 17.84-9.582 36.227-14.839 53.999zM1179.648 179.962c4.415-22.073 11.216-45.17 17.77-67.516 5.143-17.385 10.24-34.748 14.199-51.564 5.757-24.417 0.956-31.38 0.41-32.085-1.775-2.23-7.259-2.48-9.535-2.48-5.507 0-12.354 1.229-19.818 3.527-12.561 3.868-25.534 6.804-40.575 10.217-19.001 4.301-40.548 9.193-68.333 17.522l-8.217 2.458-7.828-3.595c-97.394-44.76-310.019-72.249-419.587-72.249s-322.198 27.489-419.591 72.249l-7.828 3.595-8.215-2.458c-27.785-8.329-49.334-13.221-68.335-17.522-15.042-3.413-28.013-6.349-40.574-10.217-7.464-2.298-14.313-3.527-19.82-3.527-1.775 0-7.714 0.182-9.535 2.48-0.546 0.705-5.348 7.669 0.41 32.085 3.959 16.816 9.057 34.179 14.2 51.564 6.554 22.346 13.356 45.443 17.771 67.516l1.321 6.576-2.435 6.235c-28.035 71.157-43.486 158.72-43.486 246.534s15.451 175.4 43.486 246.534l2.435 6.235-1.321 6.576c-4.415 22.073-11.217 45.17-17.771 67.516-5.143 17.385-10.241 34.748-14.2 51.564-5.757 24.417-0.956 31.38-0.41 32.085 1.775 2.23 7.259 2.481 9.535 2.481 5.507 0 12.356-1.229 19.82-3.527 12.561-3.868 25.532-6.804 40.574-10.217 19.001-4.301 40.55-9.193 68.335-17.521l8.215-2.458 7.828 3.595c97.393 44.76 310.023 72.249 419.591 72.249s322.194-27.489 419.587-72.249l7.828-3.595 8.217 2.458c27.785 8.329 49.332 13.221 68.333 17.521 15.041 3.413 28.014 6.349 40.575 10.217 7.464 2.298 14.311 3.527 19.818 3.527 1.775 0 7.714-0.182 9.535-2.481 0.546-0.705 5.348-7.669-0.41-32.085-3.959-16.816-9.057-34.179-14.199-51.564-6.554-22.346-13.355-45.444-17.77-67.516l-1.322-6.576 2.435-6.235c28.035-71.157 43.486-158.72 43.486-246.534s-15.451-175.4-43.486-246.534l-2.435-6.235 1.322-6.576zM265.328 747.783l17.251-42.121c95.824 39.254 222.092 60.872 355.531 60.872 133.416 0 259.689-21.618 355.535-60.872l17.249 42.121c-101.171 41.461-233.588 64.284-372.784 64.284-139.218 0-271.633-22.823-372.782-64.284z" />
<glyph unicode="&#xe916;" glyph-name="20" horiz-adv-x="956" d="M940.373 453.495c-2.867 0.29-5.871 0.495-8.772 0.751 12.459 37.188 20.975 106.086-46.285 172.134 28.928 15.991 45.807 47.65 45.79 77.602 0 43.742-36.164 91.136-92.945 88.047 3.311 20.514-1.69 40.619-14.438 57.378-20.019 26.334-51.729 35.686-72.789 35.686-17.749 0-42.991-6.775-62.481-24.627-29.508 17.391-78.575 33.519-108.595 40.039-20.173 25.463-46.353 54.494-101.99 54.494s-81.818-29.030-101.99-54.494c-30.003-6.502-79.070-22.648-108.595-40.039-19.507 17.835-44.732 24.627-62.481 24.627-21.060 0-52.77-9.353-72.79-35.686-12.766-16.777-17.766-36.881-14.455-57.395-56.73 2.867-92.928-44.306-92.928-88.048 0-21.948 8.533-43.827 23.432-60.075 6.434-7.031 13.825-12.783 21.88-17.237-57.771-56.815-64.308-121.071-46.285-174.541-5.103 2.133-10.94 1.775-15.65-1.178-4.983-3.123-8.004-8.585-8.004-14.455v-192.461c0-6.537 3.72-12.493 9.608-15.343 31.317-15.258 69.377-25.6 115.081-31.249l-88.474-152.576 127.471 19.456 58.266-112.93 102.98 180.77 51.2-19.558c11.827-24.013 49.169-57.173 101.734-57.173s89.924 33.161 101.734 57.173l51.337 19.593 102.827-180.855 58.266 112.964 127.471-19.456-97.314 167.834c5.103 7.817 12.305 19.115 17.203 27.921 36.608-1.724 67.908-6.042 94.942-13.124 5.12-1.314 10.564-0.222 14.746 3.004s6.656 8.294 6.656 13.585v192.461c0 8.772-6.639 16.111-15.36 16.981zM896.205 456.738c-18.21 0.905-37.257 1.399-57.634 1.399-37.257 0-75.998-1.553-115.473-4.045 2.953 18.534 4.369 38.827 4.369 53.845 0 6.229-0.546 12.442-1.007 18.637 8.789-2.492 17.271-3.686 24.474-3.686 21.060 0 52.77 9.353 72.789 35.686 12.766 16.777 17.766 36.881 14.455 57.395 2.628-0.137 5.154-0.068 7.697 0 76.203-62.259 63.59-127.505 50.33-159.232zM276.258 418.082c-9.062 25.754-13.858 63.659-13.858 89.856 0 12.988 1.434 25.89 3.721 38.588 4.062 3.584 7.987 7.475 11.452 12.049 12.766 16.777 17.766 36.881 14.455 57.395 47.002-2.56 79.65 29.269 89.651 65.075 59.546 29.645 133.069 29.611 192.58-0.102 3.738-13.636 10.342-26.539 19.917-36.983 17.749-19.371 42.462-29.389 69.513-27.972-3.311-20.514 1.69-40.619 14.438-57.378 3.482-4.574 7.407-8.465 11.469-12.066 2.287-12.698 3.721-25.6 3.721-38.588 0-15.394-1.792-37.956-5.444-56.286-53.043-3.977-106.957-9.284-159.983-14.524-88.986-8.789-173.397-16.794-251.631-19.063zM705.331 828.775c11.588 15.258 31.761 22.204 45.602 22.204s34.014-6.946 45.619-22.221c8.107-10.65 10.445-23.262 6.758-36.506-2.953-10.701-2.85-20.020 0.29-26.215 2.441-4.813 7.014-8.107 12.22-9.045 2.987-0.649 9.472-1.195 16.725 0.085 38.554 6.673 64.427-24.388 64.41-53.094 0-28.706-25.839-59.802-64.427-53.077-11.674 2.031-20.736 0.375-26.027-4.83-1.86-1.843-3.277-4.096-4.13-6.588-0.939-2.731-2.731-10.513 0.956-23.791 3.669-13.21 1.331-25.839-6.775-36.489-11.588-15.258-31.761-22.204-45.602-22.204s-34.014 6.946-45.619 22.221c-8.107 10.65-10.445 23.262-6.758 36.506 2.133 7.731 3.789 18.62-0.512 26.59-2.492 4.625-6.963 7.799-12.032 8.704-2.935 0.614-9.421 1.143-16.691-0.119-19.541-3.379-37.564 2.577-49.954 16.094-9.199 10.001-14.455 23.484-14.455 36.983 0 28.723 25.754 59.904 64.427 53.077 11.674-2.014 20.736-0.375 26.027 4.83 1.86 1.843 3.277 4.096 4.13 6.588 0.939 2.731 2.731 10.513-0.956 23.791-3.686 13.227-1.331 25.856 6.775 36.506zM388.557 868.267l6.315 1.178 3.977 5.052c18.688 23.842 36.352 46.37 79.019 46.37s60.331-22.511 79.019-46.37l3.977-5.052 6.315-1.178c28.86-5.393 75.708-21.248 101.513-35.72-5.342-12.715-7.253-26.471-4.983-40.517-50.108 2.526-84.19-34.031-91.443-72.738-59.785 24.064-129.007 24.064-188.791 0-7.236 38.758-41.301 75.486-91.443 72.738 2.27 14.046 0.358 27.785-4.983 40.517 25.822 14.49 72.653 30.327 101.513 35.72zM123.204 757.077c11.657-2.014 20.737-0.375 26.027 4.83 1.86 1.843 3.277 4.096 4.13 6.588 0.939 2.731 2.73 10.513-0.956 23.791-3.669 13.21-1.331 25.839 6.776 36.489 11.588 15.258 31.761 22.204 45.602 22.204s34.014-6.946 45.619-22.221c8.107-10.65 10.445-23.262 6.758-36.506-2.953-10.701-2.85-20.020 0.29-26.215 2.441-4.813 7.014-8.107 12.22-9.045 3.004-0.649 9.472-1.195 16.725 0.085 38.554 6.673 64.427-24.388 64.41-53.094 0-28.706-25.822-59.802-64.427-53.077-11.674 2.031-20.736 0.375-26.027-4.83-1.86-1.843-3.277-4.096-4.13-6.588-0.939-2.731-2.731-10.513 0.956-23.791 3.669-13.21 1.331-25.839-6.775-36.489-11.588-15.258-31.761-22.204-45.602-22.204s-34.014 6.946-45.619 22.221c-8.107 10.65-10.445 23.262-6.758 36.506 2.133 7.731 3.788 18.62-0.513 26.59-2.492 4.625-6.964 7.799-12.032 8.704-2.953 0.614-9.403 1.143-16.691-0.119-19.558-3.379-37.547 2.577-49.954 16.094-9.199 10.001-14.456 23.484-14.456 36.983-0.017 28.74 25.754 59.921 64.427 53.094zM109.124 615.953c2.799-0.102 5.615-0.154 8.466 0-3.311-20.514 1.69-40.619 14.439-57.378 20.019-26.334 51.729-35.686 72.789-35.686 7.202 0 15.667 1.195 24.474 3.686-0.461-6.212-1.007-12.407-1.007-18.637 0-25.156 3.994-61.372 12.459-90.726-1.673 0-3.465-0.119-5.12-0.119-68.471 0-123.63 6.144-167.287 18.534-20.258 35.243-45.569 109.926 40.788 180.326zM182.784 101.786l-81.322-12.425 60.741 104.755c16.998-1.075 34.713-1.741 53.606-1.741h0.034c34.082 0 69.922 1.758 106.667 4.557l-99.089-173.961-40.636 78.814zM560.316 141.807l-8.636-3.618-1.997-8.96c-1.519-6.724-25.993-39.629-71.817-39.629s-70.298 32.905-71.799 39.612l-1.843 9.233-62.208 23.757 21.811 38.298c49.596 4.659 100.25 10.769 150.084 16.794 21.35 2.577 42.854 5.154 64.324 7.646l35.635-62.669-53.555-20.463zM854.272 89.378l-81.323 12.425-40.636-78.78-117.163 206.063c64.649 7.014 128.017 12.356 184.951 12.425-4.25-6.724-8.738-13.585-12.117-18.62l-5.973-8.858 72.26-124.655zM921.6 265.472c-34.236 6.844-73.899 10.172-120.439 10.172-88.866 0-191.795-12.442-291.328-24.474-100.301-12.117-204.015-24.644-293.99-24.644-0.017 0-0.017 0-0.034 0-77.534 0-137.131 9.318-181.675 28.467v155.716c50.654-18.876 115.609-27.767 201.472-27.767 90.778 0 194.935 10.291 295.663 20.224 103.799 10.24 211.115 20.838 307.302 20.838 30.191 0 57.515-1.007 83.029-3.072v-155.46zM204.8 672c17.673 0 32 14.327 32 32s-14.327 32-32 32c-17.673 0-32-14.327-32-32s14.327-32 32-32zM750.933 672c17.673 0 32 14.327 32 32s-14.327 32-32 32c-17.673 0-32-14.327-32-32s14.327-32 32-32z" />
<glyph unicode="&#xe917;" glyph-name="19" horiz-adv-x="1059" d="M388.414 518.621v105.931h52.966v35.31h-52.966v52.966h-35.31v-52.966h-52.966v-35.31h52.966v-105.931h35.31zM868.936 960h-299.343l-63.4-45.656 162.304-272.614-171.608-670.42h-271.36l-171.608 672.115 166.788 281.265h167.706v35.31h-187.816l-184.514-311.155 182.007-712.845h326.197l56.302 219.93 26.342-113.999h188.028l140.182 599.852-122.721 212.286h-123.869v-35.31h103.477l105.543-182.537-130.631-558.98h-131.919l-35.399 153.070 106.708 416.874-153.247 257.412 27.913 20.092h267.282l156.672-278.44-156.019-674.94h-248.655v-35.31h276.745l165.411 715.635-173.497 308.365z" />
<glyph unicode="&#xe918;" glyph-name="18" horiz-adv-x="914" d="M804.571 100.571v512c0 191.579-155.849 347.429-347.429 347.429s-347.429-155.849-347.429-347.429v-512h-109.714v-164.571h914.286v164.571h-109.714zM146.286 612.571c0 171.41 139.447 310.857 310.857 310.857s310.857-139.447 310.857-310.857v-512h-621.714v512zM877.714-27.429h-841.143v91.429h841.143v-91.429zM457.143 780.545c-74.35 0-134.857-70.748-134.857-157.715s60.507-157.714 134.857-157.714c74.35 0 134.857 70.747 134.857 157.714s-60.507 157.715-134.857 157.715zM457.143 501.687c-54.199 0-98.286 54.345-98.286 121.143s44.087 121.143 98.286 121.143c54.199 0 98.286-54.345 98.286-121.143s-44.087-121.143-98.286-121.143zM585.143 374.857h-256v-36.571h256v36.571zM585.143 265.143h-256v-36.571h256v36.571z" />
<glyph unicode="&#xe919;" glyph-name="17" d="M512 960c-282.306 0-512-229.676-512-512s229.694-512 512-512c282.306 0 512 229.676 512 512s-229.694 512-512 512zM512-28.69c-262.85 0-476.69 213.839-476.69 476.69s213.839 476.69 476.69 476.69c262.85 0 476.69-213.839 476.69-476.69s-213.839-476.69-476.69-476.69zM599.324 589.241l-87.322 268.782-87.322-268.782h-281.705l47.633-35.31h259.725l61.67 189.811 61.67-189.811h259.725l47.563 35.31h-281.635zM702.835 500.966l-90.977-67.513 61.811-191.576-161.704 116.842-161.668-117.76 61.828 192.689-90.801 67.319h-59.268l108.721-80.596-87.181-271.66 228.44 166.4 228.37-165.023-87.164 270.106 108.809 80.772h-59.215z" />
<glyph unicode="&#xe91a;" glyph-name="16" horiz-adv-x="1563" d="M1562.947 433.799c0 72.973-50.984 121.991-126.841 121.991h-62.329l-181.895 404.211h-1191.882v-835.368h157.4c-0.027-1.267-0.189-2.479-0.189-3.746 0-100.298 81.597-181.895 181.895-181.895s181.895 81.597 181.895 181.895c0 1.267-0.162 2.479-0.189 3.746h546.061c-0.027-1.267-0.189-2.479-0.189-3.746 0-100.298 81.597-181.895 181.895-181.895s181.895 81.597 181.895 181.895c0 1.267-0.162 2.479-0.189 3.746h132.662v309.167zM1314.681 555.789h-371.523v350.316h213.908l157.615-350.316zM339.106-7.114c-70.576 0-128.001 57.425-128.001 128s57.425 128 128.001 128c70.575 0 128-57.425 128-128s-57.425-128-128-128zM339.106 302.781c-80.142 0-148.211-52.143-172.356-124.254h-112.855v727.579h619.789v-727.579h-162.223c-24.145 72.111-92.214 124.254-172.355 124.254zM1248.579-7.114c-70.575 0-128 57.425-128 128s57.425 128 128 128c70.575 0 128-57.425 128-128s-57.425-128-128-128zM1509.053 178.526h-88.118c-24.145 72.111-92.241 124.254-172.355 124.254s-148.211-52.143-172.355-124.254h-348.645v727.579h161.684v-404.211h546.843c45.676 0 72.947-25.465 72.947-68.096v-255.272zM1024 394.105h-134.737v-53.895h134.737v53.895zM377.263 690.526v107.789h-53.895v-107.789h-107.789v-53.895h107.789v-215.579h53.895v215.579h107.789v53.895h-107.789z" />
<glyph unicode="&#xe91b;" glyph-name="15" horiz-adv-x="772" d="M467.088 133.614h-179.649v-35.93h179.649v35.93zM759.109 383.308c-30.594 255.479-266.869 489.562-360.25 544.14l-35.878 20.965 9.308-40.493c22.887-99.705-33.020-196.914-170.882-297.176-96.939-70.494-196.034-163.535-196.034-319.039 0-133.21 61.332-220.986 120.383-261.569v-94.136h503.018v82.639c102.795 104.987 146.737 227.562 130.335 364.67zM41.303 291.705c0 139.39 91.621 224.813 181.231 289.99 132.563 96.4 195.297 192.566 190.536 292.721 101.843-77.213 284.349-278.205 310.344-495.365 13.617-113.754-18.234-216.872-94.657-307.254v177.188l-89.034 136.138h-324.913l-89.053-136.138v-173.164c-44.122 40.134-84.453 112.191-84.453 215.884zM579.047 259.368h-403.564l58.764 89.825h286.037l58.763-89.825zM161.685-28.070v251.509h431.159v-190.033c-0.431-0.413-0.808-0.844-1.24-1.258l1.24-1.293v-58.925h-431.159zM143.72 689.754c36.683 0 68.643 22.402 81.434 57.039 12.45 33.685 3.198 70.261-23.588 93.166-25.024 21.414-44.085 40.439-43.043 73.764l1.222 39.9-30.684-25.546c-93.633-77.986-81.812-147.024-72.38-173.092 13.905-38.409 49.691-65.231 87.040-65.231zM127.839 877.847c10.294-30.882 33.522-50.751 50.391-65.177 18.467-15.809 18.952-37.961 13.239-53.41-5.982-16.222-21.683-33.576-47.732-33.576-22.151 0-44.535 17.48-53.248 41.535-12.090 33.344 1.473 72.615 37.349 110.628z" />
<glyph unicode="&#xe91c;" glyph-name="14" horiz-adv-x="1221" d="M1220.925 565.169c0 68.096-40.94 126.74-99.446 152.852 33.713 24.123 55.788 63.508 55.788 108.032 0 73.295-59.628 132.923-132.903 132.923-51.673 0-96.433-29.676-118.43-72.842-9.021 1.93-18.117 3.23-27.313 3.23-73.314 0-132.945-59.628-132.945-132.923 0-45.844 23.318-86.311 58.724-110.218-56.576-27.057-95.803-84.362-95.803-150.725v-86.882h-236.308v86.882c0 66.363-39.227 123.668-95.803 150.725 35.407 23.906 58.722 64.394 58.722 110.218 0 73.295-59.628 132.923-132.943 132.923-9.177 0-18.274-1.28-27.313-3.23-21.996 43.146-66.757 72.842-118.431 72.842-73.275 0-132.903-59.628-132.903-132.923 0-44.524 22.095-83.909 55.789-108.032-58.506-26.112-99.447-84.736-99.447-152.852v-294.4h78.769v-334.769h1063.384v334.769h78.769v294.4h0.041zM1044.364 919.591c51.574 0 93.519-41.964 93.519-93.538s-41.945-93.519-93.519-93.519c-51.594 0-93.558 41.945-93.558 93.519s41.984 93.538 93.558 93.538zM898.641 849.979c4.962 0 9.925-0.512 14.848-1.319-1.26-7.365-2.068-14.887-2.068-22.587 0-47.853 25.521-89.758 63.586-113.172-22.902-12.229-42.535-29.657-57.561-50.629l-0.492 2.481c-58.722-11.678-111.872 34.107-111.872 91.707 0 51.554 41.964 93.519 93.558 93.519zM945.233 290.462v-315.077h-669.538v315.077h-4.175l50.156 78.769h577.556l50.156-78.769h-4.155zM768.002 495.498c0 70.459 57.836 127.783 128.827 127.98-6.794-18.196-10.673-37.77-10.673-58.309v-156.554h-118.154v86.882zM452.925 495.498v-86.882h-118.154v156.554c0 20.519-3.899 40.113-10.673 58.309 71.070-0.256 128.827-57.561 128.827-127.98zM309.506 826.053c0 7.719-0.807 15.222-2.068 22.587 4.923 0.827 9.886 1.319 14.848 1.319 51.594 0 93.558-41.964 93.558-93.538 0-57.58-53.189-103.365-111.872-91.707l-0.492-2.481c-15.025 20.972-34.658 38.42-57.561 50.629 38.065 23.454 63.586 65.339 63.586 113.191zM176.562 919.591c51.595 0 93.559-41.964 93.559-93.538s-41.964-93.519-93.559-93.519c-51.574 0-93.519 41.945-93.519 93.519s41.944 93.538 93.519 93.538zM39.386 565.169c0 70.577 57.423 128 128 128s128.001-57.423 128.001-128v-163.919l-58.016-91.097h-197.985v255.015zM118.155 270.769h118.155v-295.385h-118.155v295.385zM1102.771-24.615h-118.154v295.385h118.154v-295.385zM1181.54 310.154h-197.986l-58.014 91.097v163.919c0 70.577 57.423 128 128 128s128-57.423 128-128v-255.015zM374.154 73.846h472.615v196.923h-472.615v-196.923zM413.538 231.385h393.846v-118.154h-393.846v118.154z" />
<glyph unicode="&#xe91d;" glyph-name="13" horiz-adv-x="878" d="M643.456 342.875l-61.019 50.56c26.514 26.021 45.147 61.44 55.113 105.289 39.79 45.696 97.298 138.807 62.921 270.848-30.135 115.675-132.846 190.427-261.687 190.427s-231.552-74.752-261.669-190.427c-34.377-131.986 23.131-225.134 62.903-270.848 9.984-43.867 28.654-79.305 55.205-105.344l-61.038-50.578c-160.75-19.511-234.185-129.664-234.185-224.914v-181.888h877.714v181.888c0 95.36-73.454 205.641-234.258 224.987zM391.424 64h94.866l24.082-91.429h-143.013l24.064 91.429zM486.107 100.571h-94.501l-14.921 51.986 62.171 30.811 62.171-30.811-14.921-51.986zM465.28 211.090l97.134 151.461 51.31-42.514-63.927-150.821-84.517 41.874zM212.517 760.357c25.783 99.054 114.615 163.072 226.267 163.072s200.485-64 226.286-163.072c20.919-80.366 3.072-144.329-21.467-189.349 0.933 37.669-0.896 84.535-11.867 122.277-4.151 14.245-16.768 57.618-58.149 57.618-10.405 0-20.279-2.798-28.581-5.522-32-10.514-72.686-17.061-106.222-17.061s-74.222 6.528-106.203 17.061c-8.302 2.725-18.194 5.522-28.581 5.522-41.399 0-54.016-43.374-58.149-57.618-10.971-37.742-12.818-84.59-11.886-122.24-24.521 45.019-42.368 108.983-21.449 189.312zM274.779 510.555c-4.882 39.973-8.978 120.283 6.199 172.507 9.088 31.25 19.218 31.25 23.022 31.25 5.266 0 11.941-1.975 17.152-3.694 35.401-11.648 80.475-18.889 117.632-18.889 37.138 0 82.213 7.241 117.65 18.889 5.23 1.719 11.904 3.694 17.152 3.694 3.803 0 13.952 0 23.022-31.25 15.177-52.151 11.063-132.517 6.181-172.526-23.259-109.97-101.998-133.102-164.005-133.102s-140.727 23.131-164.005 133.12zM438.784 340.864c26.661 0 51.072 3.602 73.070 10.606l-72.997-113.829-72.96 113.792c21.943-6.985 46.299-10.569 72.887-10.569zM315.319 362.551l97.134-151.461-84.517-41.874-63.927 150.821 51.31 42.514zM36.571 117.888c0 56.229 41.234 165.321 193.938 187.429l78.866-186.094 33.975 16.841 15.232-53.065-29.074-110.427h-292.937v145.317zM841.143-27.429h-292.955l-29.074 110.427 15.232 53.065 33.975-16.841 78.885 186.149c152.722-21.998 193.92-131.2 193.92-187.483v-145.317h0.018zM713.143 64h-109.714v-36.571h109.714v36.571zM758.583 23.808c11.361 0 20.571 9.211 20.571 20.571s-9.211 20.571-20.571 20.571c-11.361 0-20.571-9.211-20.571-20.571s9.211-20.571 20.571-20.571z" />
<glyph unicode="&#xe91e;" glyph-name="12" horiz-adv-x="1365" d="M0 362.667h1038.507l-305.493-306.347 120.32-120.32 512 512-512 512-120.32-120.32 305.493-306.347h-1038.507v-170.667z" />
<glyph unicode="&#xe91f;" glyph-name="11" d="M910.222 732.444h-568.889c-62.578 0-113.778-51.2-113.778-113.778v-568.889c0-62.578 51.2-113.778 113.778-113.778h568.889c62.578 0 113.778 51.2 113.778 113.778v568.889c0 62.578-51.2 113.778-113.778 113.778zM910.222 618.667v-113.778h-568.889v113.778h568.889zM568.889 277.333v113.778h113.778v-113.778h-113.778zM682.667 163.556v-113.778h-113.778v113.778h113.778zM455.111 277.333h-113.778v113.778h113.778v-113.778zM796.444 391.111h113.778v-113.778h-113.778v113.778zM341.333 163.556h113.778v-113.778h-113.778v113.778zM796.444 49.778v113.778h113.778v-113.778h-113.778zM170.667 163.556h-56.889c-62.578 0-113.778 51.2-113.778 113.778v568.889c0 62.578 51.2 113.778 113.778 113.778h568.889c62.578 0 113.778-51.2 113.778-113.778v-56.889h-113.778v56.889h-568.889v-568.889h56.889v-113.778z" />
<glyph unicode="&#xe920;" glyph-name="10" d="M967.111 248.889c-71.111 0-139.378 11.378-203.093 32.427-5.689 1.707-11.947 2.844-17.636 2.844-14.791 0-29.013-5.689-40.391-16.498l-125.156-125.156c-160.996 81.92-292.978 213.333-374.898 374.329l125.156 125.724c15.929 15.36 20.48 37.547 14.222 57.458-21.049 63.716-32.427 131.982-32.427 203.093 0 31.289-25.6 56.889-56.889 56.889h-199.111c-31.289 0-56.889-25.6-56.889-56.889 0-534.187 432.924-967.111 967.111-967.111 31.289 0 56.889 25.6 56.889 56.889v199.111c0 31.289-25.6 56.889-56.889 56.889zM115.484 846.222h85.333c3.982-50.062 12.516-99.556 26.169-147.342l-68.267-68.836c-23.324 68.836-38.116 141.084-43.236 216.178zM910.222 51.484c-75.093 5.12-147.911 19.911-216.178 43.236l68.267 68.267c48.356-13.653 97.849-22.187 147.911-25.6v-85.902zM512 960v-568.889l170.667 170.667h341.333v398.222h-512zM910.222 675.556h-284.444v170.667h284.444v-170.667z" />
<glyph unicode="&#xe921;" glyph-name="9" horiz-adv-x="878" d="M780.19 960h-682.667c-54.126 0-97.524-43.886-97.524-97.524v-682.667c0-53.638 43.398-97.524 97.524-97.524h195.048l146.286-146.286 146.286 146.286h195.048c53.638 0 97.524 43.886 97.524 97.524v682.667c0 53.638-43.886 97.524-97.524 97.524zM780.19 179.81h-235.52l-105.813-105.813-105.813 105.813h-235.52v682.667h682.667v-682.667zM390.095 326.095h97.524v-97.524h-97.524v97.524zM438.857 716.19c53.638 0 97.524-43.886 97.524-97.524 0-97.524-146.286-85.333-146.286-243.81h97.524c0 109.714 146.286 121.905 146.286 243.81 0 107.764-87.284 195.048-195.048 195.048s-195.048-87.284-195.048-195.048h97.524c0 53.638 43.886 97.524 97.524 97.524z" />
<glyph unicode="&#xe922;" glyph-name="8" horiz-adv-x="658" d="M508.286 913.429l-465.429-465.429 465.429-465.429 103.429 103.429-362 362 362 362z" />
<glyph unicode="&#xe923;" glyph-name="7" horiz-adv-x="1229" d="M1112.267 899.067l-702.667-702.667-293.067 293.067-96.533-96.533 389.6-389.6 799.2 799.2z" />
<glyph unicode="&#xe924;" glyph-name="6" horiz-adv-x="704" d="M513.62 827.327h-76.332c-139.942 0-213.549-70.88-213.549-175.383 0-118.133 50.888-173.482 155.391-244.445l86.328-58.157-248.080-370.673h-185.379l222.636 331.597c-128.047 91.781-199.918 180.918-199.918 331.683 0 189.013 131.764 318.051 381.662 318.051h248.081v-980.422h-170.84v847.75z" />
<glyph unicode="&#xe925;" glyph-name="5" horiz-adv-x="1067" d="M879.898 811.008c-95.744 95.906-223.13 148.833-358.788 148.992-279.718 0-507.384-227.746-507.384-507.541-0.159-89.22 23.399-176.653 67.691-253.534l-71.989-262.925 268.934 70.635c73.978-40.512 157.548-61.722 242.51-61.722h0.239c279.637 0 507.063 227.507 507.145 507.226 0.201 135.501-52.651 263.043-148.356 358.869zM521.148 30.434h-0.239c-75.691 0.077-150.025 20.531-214.732 58.897l-15.321 9.229-159.577-41.98 42.501 155.516-10.028 15.919c-42.222 67.093-64.428 144.811-64.268 224.401 0 232.642 189.105 421.508 421.746 421.508 112.777 0 218.475-43.933 297.903-123.444 79.829-79.749 123.644-185.762 123.563-298.38 0-232.482-189.146-421.666-421.547-421.666zM752.235 346.359c-12.813 6.366-75.012 36.77-86.673 41.263-11.58 4.181-19.977 6.289-28.373-6.524-8.555-12.574-32.87-41.109-40.35-49.583-7.245-8.478-14.844-9.472-27.418-3.187-12.578 6.37-53.367 19.661-101.875 63.036-37.687 33.745-63.037 75.174-70.478 87.667-7.402 12.655-0.835 19.58 5.612 25.95 5.69 5.687 12.575 14.844 18.982 22.084 6.367 7.521 8.474 12.734 12.814 21.29 4.139 8.317 2.031 15.759-1.075 22.086-3.264 6.288-28.532 68.805-39.237 94.115-10.108 24.633-20.534 21.45-28.374 21.847-7.482 0.398-15.997 0.398-24.235 0.398-8.556 0-22.325-3.104-33.905-15.918-11.739-12.655-44.451-43.297-44.451-105.775 0-62.398 45.565-122.566 51.932-131.044 6.288-8.397 89.379-136.418 216.445-191.292 30.323-13.372 53.803-20.975 72.346-26.825 30.323-9.711 57.822-8.158 79.748-4.975 24.397 3.742 74.935 30.562 85.559 60.331 10.505 29.606 10.505 54.955 7.322 60.25-3.145 5.333-11.541 8.435-24.316 14.805z" />
<glyph unicode="&#xe926;" glyph-name="4" horiz-adv-x="1229" d="M997.663-31.555l199.916 938.695c4.26 20.991-16.364 38.246-36.091 30.486l-1103.529-420.684c-22.372-8.628-22.609-43.112-0.999-52.977l282.626-116.082 105.322-331.853c6.261-17.992 28.619-23.726 42.981-11.602l161.691 150.538 307.369-204.012c16.097-9.999 36.982-0.896 40.714 17.49zM496.863 285.184l-17.861-170.557-85.463 262.518 601.737 395.194-498.414-487.155z" />
<glyph unicode="&#xe927;" glyph-name="3" d="M1024 448.465l-113.571 129.862 15.825 171.753-168.029 38.167-87.971 148.48-158.255-67.956-158.255 67.956-87.971-148.48-168.029-37.702 15.825-172.218-113.571-129.862 113.571-129.862-15.825-172.218 168.029-38.167 87.971-148.945 158.255 68.422 158.255-67.956 87.971 148.48 168.029 38.167-15.825 171.753 113.571 130.327zM840.145 379.578l-26.065-30.255 3.724-39.564 8.378-90.764-127.535-28.858-20.48-34.444-46.080-78.196-82.851 35.84-37.236 15.825-36.771-15.825-82.851-35.84-46.080 77.731-20.48 34.444-127.535 28.858 8.378 91.229 3.724 39.564-26.065 30.255-60.044 68.422 60.044 68.887 26.065 30.255-4.189 40.029-8.378 90.298 127.535 28.858 20.48 34.444 46.080 78.196 82.851-35.84 37.236-15.825 36.771 15.825 82.851 35.84 46.080-78.196 20.48-34.444 127.535-28.858-8.378-90.764-3.724-39.564 26.065-30.255 60.044-68.422-59.578-68.887zM423.1 366.545l-107.985 108.451-68.887-69.353 176.873-177.338 341.642 342.575-68.887 69.352-272.755-273.687z" />
<glyph unicode="&#xe928;" glyph-name="2" d="M967.111 248.889c-71.111 0-139.378 11.378-203.093 32.427-5.689 1.707-11.947 2.844-17.636 2.844-14.791 0-29.013-5.689-40.391-16.498l-125.156-125.156c-160.996 81.92-292.978 213.333-374.898 374.329l125.156 125.724c15.929 15.36 20.48 37.547 14.222 57.458-21.049 63.716-32.427 131.982-32.427 203.093 0 31.289-25.6 56.889-56.889 56.889h-199.111c-31.289 0-56.889-25.6-56.889-56.889 0-534.187 432.924-967.111 967.111-967.111 31.289 0 56.889 25.6 56.889 56.889v199.111c0 31.289-25.6 56.889-56.889 56.889zM115.484 846.222h85.333c3.982-50.062 12.516-99.556 26.169-147.342l-68.267-68.836c-23.324 68.836-38.116 141.084-43.236 216.178zM910.222 51.484c-75.093 5.12-147.911 19.911-216.178 43.236l68.267 68.267c48.356-13.653 97.849-22.187 147.911-25.6v-85.902zM512 960v-568.889l170.667 170.667h341.333v398.222h-512zM910.222 675.556h-284.444v170.667h284.444v-170.667z" />
<glyph unicode="&#xe929;" glyph-name="1" horiz-adv-x="1081" d="M1024 716.516v129.707c0 62.578-51.2 113.778-113.778 113.778h-796.444c-63.147 0-113.778-51.2-113.778-113.778v-796.444c0-62.578 50.631-113.778 113.778-113.778h796.444c62.578 0 113.778 51.2 113.778 113.778v129.707c33.564 19.911 56.889 55.751 56.889 97.849v341.333c0 42.098-23.324 77.938-56.889 97.849zM967.111 618.667v-341.333h-398.222v341.333h398.222zM113.778 49.778v796.444h796.444v-113.778h-341.333c-62.578 0-113.778-51.2-113.778-113.778v-341.333c0-62.578 51.2-113.778 113.778-113.778h341.333v-113.778h-796.444z" />
</font>
</defs>
</svg>
