<svg width="64" height="52" viewBox="0 0 64 52" fill="none" xmlns="http://www.w3.org/2000/svg">
<path d="M31.998 50.438L31.38 50.087C21.583 44.515 15.581 33.946 14.481 20.329L14.373 18.983L15.724 18.979C17.997 18.972 19.847 17.118 19.847 14.847C19.847 14.43 19.784 14.014 19.659 13.61L19.327 12.54L20.354 12.094C25.237 9.97 31.463 7.426 31.525 7.4L31.998 7.207L32.471 7.4C32.534 7.425 38.76 9.97 43.646 12.093L44.677 12.541L44.34 13.614C44.217 14.008 44.154 14.422 44.154 14.846C44.154 17.117 46.003 18.971 48.275 18.978L49.626 18.982L49.518 20.328C48.417 33.947 42.415 44.516 32.616 50.086L31.998 50.438ZM17.084 21.335C18.33 33.229 23.589 42.479 31.998 47.552C40.408 42.481 45.668 33.23 46.914 21.335C43.914 20.699 41.654 18.028 41.654 14.846C41.654 14.554 41.673 14.265 41.71 13.98C37.829 12.308 33.425 10.494 31.998 9.909C30.571 10.494 26.168 12.308 22.289 13.98C22.327 14.267 22.346 14.556 22.346 14.846C22.346 18.028 20.085 20.699 17.084 21.335Z" fill="#0F3F93"/>
<path d="M31.998 39.68H35.527V38.425C35.527 38.425 35.166 38.425 34.909 38.425C34.707 38.425 33.875 38.16 33.572 36.992C37.451 32.255 39.994 22.588 39.994 19.808C38.987 19.549 38.804 19.412 38.156 19.05C37.347 18.594 36.806 18.756 36.129 18.864C35.334 18.992 32.926 19.151 31.998 19.151C31.072 19.151 28.664 18.992 27.869 18.864C27.191 18.756 26.652 18.594 25.842 19.05C25.194 19.412 25.01 19.549 24.004 19.808C24.004 22.588 26.545 32.255 30.426 36.992C30.121 38.16 29.29 38.425 29.089 38.425C28.831 38.425 28.471 38.425 28.471 38.425V39.68H31.998Z" fill="#E20303"/>
<path d="M34.643 39.045C34.643 39.045 32.829 38.631 32.766 35.852C32.707 33.167 32.766 26.945 32.766 26.945C32.766 26.945 33.571 26.95 34.378 26.945C35.118 26.941 35.983 27.049 36.652 27.887C36.785 27.384 37.451 24.472 37.451 24.472C37.451 24.472 36.122 25.05 35.181 25.05C34.465 25.05 32.765 25.05 32.765 25.05C32.765 25.05 32.786 22.844 33.057 21.879C33.324 20.932 33.941 20.158 33.941 20.158H30.054C30.054 20.158 30.672 20.932 30.939 21.879C31.21 22.844 31.232 25.05 31.232 25.05C31.232 25.05 29.531 25.05 28.816 25.05C27.876 25.05 26.545 24.472 26.545 24.472C26.545 24.472 27.213 27.384 27.346 27.887C28.015 27.049 28.88 26.941 29.619 26.945C30.428 26.95 31.232 26.945 31.232 26.945C31.232 26.945 31.291 33.168 31.23 35.852C31.169 38.631 29.355 39.045 29.355 39.045H34.643Z" fill="white"/>
<path d="M12.081 25.449C11.947 25.189 11.512 24.503 10.567 24.461C9.62303 24.419 5.25003 24.672 5.04803 21.534C6.09503 22.497 8.37903 23.627 10.796 22.859C10.517 22.635 10.059 22.438 9.44803 22.38C8.57003 22.298 3.64503 21.703 3.64103 17.72C5.14503 19.938 6.96703 20.507 8.01903 20.79C8.69803 20.973 9.25403 20.994 10.205 20.937C9.82903 20.65 8.97903 20.254 7.96803 19.949C6.35503 19.463 2.47603 17.133 2.05103 12.713C3.42503 15.6 5.82203 17.278 7.80003 18.352C9.11903 19.067 9.43103 19.132 9.66503 19.149C9.22403 18.608 8.71203 18.18 7.25503 17.101C5.79003 16.014 0.171028 11.427 2.21503 7.003C3.33403 12.11 6.88403 14.844 7.97203 15.787C8.99803 16.676 9.65703 17.176 9.99103 17.399C9.71603 16.31 8.06703 14.97 6.84103 13.466C5.74203 12.118 0.786028 5.912 3.60003 3.272C4.11503 7.036 5.87003 10.001 8.08403 12.475C10.188 14.826 10.381 15.371 10.992 15.929C10.881 15.127 10.221 13.786 9.57603 12.96C8.93003 12.136 6.80703 9.333 5.78603 6.946C4.83803 4.729 3.59603 2.352 5.04303 1C5.60203 3.513 8.52503 8.486 11.243 11.972C12.726 13.876 13.015 14.726 13.329 15.416C13.641 16.106 13.773 16.575 12.816 17.065C12.052 17.455 11.074 18.012 11.531 19.382C12.053 20.936 12.738 23.827 12.081 25.449Z" fill="#0F3F93"/>
<path d="M51.9191 25.449C52.0531 25.189 52.4881 24.503 53.4331 24.461C54.3771 24.419 58.7501 24.672 58.9521 21.534C57.9051 22.497 55.6211 23.627 53.2041 22.859C53.4831 22.635 53.9411 22.438 54.5521 22.38C55.4301 22.298 60.3551 21.703 60.3591 17.72C58.8551 19.938 57.0331 20.507 55.9811 20.79C55.3021 20.973 54.7461 20.994 53.7951 20.937C54.1711 20.65 55.0211 20.254 56.0321 19.949C57.6451 19.463 61.5241 17.133 61.9491 12.713C60.5751 15.6 58.1781 17.278 56.2001 18.352C54.8811 19.067 54.5691 19.132 54.3351 19.149C54.7761 18.608 55.2881 18.18 56.7451 17.101C58.2111 16.015 63.8301 11.429 61.7861 7.00401C60.6671 12.111 57.1171 14.845 56.0291 15.788C55.0031 16.677 54.3441 17.177 54.0101 17.4C54.2851 16.311 55.9341 14.971 57.1601 13.467C58.2581 12.118 63.2141 5.91201 60.4001 3.27301C59.8851 7.03701 58.1301 10.002 55.9161 12.476C53.8121 14.827 53.6191 15.372 53.0081 15.93C53.1191 15.128 53.7791 13.787 54.4241 12.961C55.0701 12.137 57.1931 9.33401 58.2141 6.94701C59.1621 4.73101 60.4041 2.35301 58.9571 1.00101C58.3981 3.51401 55.4751 8.48701 52.7571 11.973C51.2741 13.877 50.9851 14.727 50.6711 15.417C50.3591 16.107 50.2271 16.576 51.1841 17.066C51.9481 17.456 52.9261 18.013 52.4691 19.383C51.9471 20.936 51.2621 23.827 51.9191 25.449Z" fill="#0F3F93"/>
</svg>
